<svg xmlns="http://www.w3.org/2000/svg" width="177.203" height="156.178" viewBox="0 0 177.203 156.178">
  <path id="Diamond" d="M176.337,44.709,135.071,5.13c-.514-.487-1.2-1.333-1.9-1.333H44.034c-.707,0-1.388.846-1.9,1.333L.866,44.422a2.957,2.957,0,0,0-.284,3.854c.581.749,85.345,109.993,85.976,110.7a3.126,3.126,0,0,0,.949.737,2.49,2.49,0,0,0,2.188.018,2.927,2.927,0,0,0,.949-.692c.042-.047.1-.062.143-.112L176.621,48.417A2.765,2.765,0,0,0,176.337,44.709ZM43.269,11.1,57.1,42.56H9.985Zm23.4,31.461L88.6,11.379l21.93,31.182ZM112.743,48.1,88.6,144.666,64.46,48.1ZM93.934,9.335h34.727L115.3,39.721ZM61.9,39.721,48.542,9.335H83.27ZM58.752,48.1l23.977,95.907L8.238,48.1Zm59.7,0h50.513l-74.49,95.907Zm1.654-5.538L133.934,11.1,167.219,42.56Z" transform="translate(0 -3.797)" fill="#8a0bdb"/>
</svg>
