<svg xmlns="http://www.w3.org/2000/svg" width="157.487" height="157.487" viewBox="0 0 157.487 157.487">
  <path id="Path_1" data-name="Path 1" d="M1.508,148.7,74.954,75.251l0,0,0,0L148.7,1.508a5.149,5.149,0,0,1,8.79,3.641V152.338a5.149,5.149,0,0,1-5.149,5.149H5.149a5.149,5.149,0,0,1-3.641-8.79Zm145.68-1.507h0V17.58L129.569,35.2l6.068,6.068a5.149,5.149,0,1,1-7.281,7.282l-6.068-6.068L107.724,57.045l3.641,3.641a5.149,5.149,0,1,1-7.281,7.282l-3.641-3.641L85.878,78.891l6.068,6.068a5.149,5.149,0,1,1-7.281,7.282L78.6,86.173,64.034,100.736l3.641,3.641a5.149,5.149,0,1,1-7.281,7.282l-3.641-3.641L42.189,122.581l6.068,6.068a5.149,5.149,0,1,1-7.281,7.282l-6.068-6.068L17.581,147.189H147.188Z" transform="translate(0 0)" fill="#8a0bdb"/>
</svg>
